<svg xmlns="http://www.w3.org/2000/svg" xmlns:xlink="http://www.w3.org/1999/xlink" width="2048" zoomAndPan="magnify" viewBox="0 0 1536 1535.999932" height="2048" preserveAspectRatio="xMidYMid meet" version="1.2"><defs><clipPath id="29675a87f4"><path d="M 153.601562 160.660156 L 1382.398438 160.660156 L 1382.398438 1389.457031 L 153.601562 1389.457031 Z M 153.601562 160.660156 "/></clipPath><clipPath id="060f7d48d4"><path d="M 768 160.660156 C 428.675781 160.660156 153.601562 435.734375 153.601562 775.058594 C 153.601562 1114.382812 428.675781 1389.457031 768 1389.457031 C 1107.324219 1389.457031 1382.398438 1114.382812 1382.398438 775.058594 C 1382.398438 435.734375 1107.324219 160.660156 768 160.660156 Z M 768 160.660156 "/></clipPath><clipPath id="b6d5882e3b"><path d="M 537.601562 537.601562 L 998.398438 537.601562 L 998.398438 998.398438 L 537.601562 998.398438 Z M 537.601562 537.601562 "/></clipPath></defs><g id="5501c56d37"><g clip-rule="nonzero" clip-path="url(#29675a87f4)"><g clip-rule="nonzero" clip-path="url(#060f7d48d4)"><path style=" stroke:none;fill-rule:nonzero;fill:#0824cc;fill-opacity:1;" d="M 153.601562 160.660156 L 1382.398438 160.660156 L 1382.398438 1389.457031 L 153.601562 1389.457031 Z M 153.601562 160.660156 "/></g></g><g clip-rule="nonzero" clip-path="url(#b6d5882e3b)"><path style=" stroke:none;fill-rule:nonzero;fill:#0824cc;fill-opacity:1;" d="M 537.601562 537.601562 L 998.398438 537.601562 L 998.398438 998.398438 L 537.601562 998.398438 Z M 537.601562 537.601562 "/></g><g style="fill:#fefffe;fill-opacity:1;"><g transform="translate(410.137559, 1124.16227)"><path style="stroke:none" d="M 105.6875 0 L 105.6875 -813.203125 L 432.1875 -813.203125 C 516.363281 -813.203125 579.863281 -793.828125 622.6875 -755.078125 C 665.519531 -716.328125 686.9375 -662.835938 686.9375 -594.609375 C 686.9375 -545.285156 674.421875 -504.863281 649.390625 -473.34375 C 624.359375 -441.832031 587 -417.734375 537.3125 -401.046875 L 537.3125 -389.359375 C 562.90625 -378.234375 583.578125 -361.726562 599.328125 -339.84375 C 615.085938 -317.96875 630.015625 -285.523438 644.109375 -242.515625 L 725.328125 0 L 560.125 0 L 480.578125 -243.078125 C 472.421875 -267.546875 463.242188 -286.546875 453.046875 -300.078125 C 442.847656 -313.617188 429.867188 -323.445312 414.109375 -329.5625 C 398.347656 -335.6875 377.863281 -338.75 352.65625 -338.75 L 266.4375 -338.75 L 266.4375 0 Z M 412.71875 -466.125 C 490.59375 -466.125 529.53125 -502.460938 529.53125 -575.140625 C 529.53125 -648.929688 490.59375 -685.828125 412.71875 -685.828125 L 266.4375 -685.828125 L 266.4375 -466.125 Z M 412.71875 -466.125 "/></g></g></g></svg>